<svg xmlns="http://www.w3.org/2000/svg" width="128" height="82.248" viewBox="0 0 128 82.248">
  <defs>
    <style>
      .cls-1 {
        fill: #fff;
      }
    </style>
  </defs>
  <path id="Neuralink_logo" data-name="Neuralink logo" class="cls-1" d="M2.017,124.423H-68.2l50.726-49A15.817,15.817,0,0,1-1.256,71.838,15.8,15.8,0,0,1,9.271,84.685l8.109,59.164a4.576,4.576,0,0,0,7.8,2.582l21.745-22.008h-24.9l-.839-5.379H59.8L29.009,150.231a9.89,9.89,0,0,1-7.056,2.977,9.733,9.733,0,0,1-3.174-.526,9.892,9.892,0,0,1-6.727-8.093L3.942,85.425a10.282,10.282,0,0,0-6.958-8.487A10.339,10.339,0,0,0-13.74,79.306l-41.137,39.739H1.261ZM45.293,96.363H40.408V71.033h4.885l9.26,16.613h.066V71.033h4.918v25.33H54.718L45.342,79.75h-.066V96.363Z" transform="translate(68.2 -70.96)"/>
</svg>
